# xmcd
#
# Track frame offsets:
#	150
#	10525
#	20128
#	32497
#	44912
#	58266
#	69401
#	78814
#	90351
#	103592
#	119555
#	131018
#	146742
#	156652
#	170216
#	183375
#	197174
#	206953
#	220987
#	232890
#	246735
#	260320
#
# Disc length: 3633 seconds
#
# Revision: 0
# Processed by: cddbd v1.5.2PL0 Copyright (c) Steve Scherf et al.
# Submitted via: EZCDAudioConverter 2.1.7.1
#
DISCID=4f0e2f16
DTITLE=Zakary Thaks - It's The End: The Definitive Collection
DYEAR=1900
DGENRE=
TTITLE0=Zakary Thaks - She's Got You
TTITLE1=Zakary Thaks - Bad Girl
TTITLE2=Zakary Thaks - Face To Face
TTITLE3=Zakary Thaks - Won't Come Back
TTITLE4=Zakary Thaks - It's The End
TTITLE5=Zakary Thaks - I Need You
TTITLE6=Zakary Thaks - Please
TTITLE7=Zakary Thaks - A Passage To India
TTITLE8=Zakary Thaks - Mirror Of Yesterday
TTITLE9=Zakary Thaks - My Door
TTITLE10=Zakary Thaks - Can You Hear Your Daddy's Footsteps
TTITLE11=Zakary Thaks - Green Crystal Ties
TTITLE12=Zakary Thaks - Outprint
TTITLE13=Zakary Thaks - Weekday Blues
TTITLE14=Zakary Thaks - Everybody Wants To Be Somebody
TTITLE15=Zakary Thaks - Face To Face [Alternate Version Take 12]
TTITLE16=Zakary Thaks - Please [Alternate Stereo Mix]
TTITLE17=Zakary Thaks - Mirror Of Yesterday [Alternate Stereo Mix]
TTITLE18=Zakary Thaks - Can You Hear Your Daddy's Footsteps [Alternate Stereo 
TTITLE18=Version]
TTITLE19=Michael - I'd Only Laugh [Alternate Version]
TTITLE20=Michael - People Sec. IV
TTITLE21=Michael - Gotta Make My Heart Turn Away
EXTD=
EXTT0=
EXTT1=
EXTT2=
EXTT3=
EXTT4=
EXTT5=
EXTT6=
EXTT7=
EXTT8=
EXTT9=
EXTT10=
EXTT11=
EXTT12=
EXTT13=
EXTT14=
EXTT15=
EXTT16=
EXTT17=
EXTT18=
EXTT19=
EXTT20=
EXTT21=
PLAYORDER=
